<?xml version="1.0" encoding="UTF-8" standalone="no"?>
<!-- Created with Inkscape (http://www.inkscape.org/) -->

<svg
   width="73.818748mm"
   height="46.521381mm"
   viewBox="0 0 73.818748 46.521381"
   version="1.1"
   id="svg5"
   xml:space="preserve"
   inkscape:export-filename="bitmap.svg"
   inkscape:export-xdpi="96"
   inkscape:export-ydpi="96"
   xmlns:inkscape="http://www.inkscape.org/namespaces/inkscape"
   xmlns:sodipodi="http://sodipodi.sourceforge.net/DTD/sodipodi-0.dtd"
   xmlns="http://www.w3.org/2000/svg"
   xmlns:svg="http://www.w3.org/2000/svg"><sodipodi:namedview
     id="namedview7"
     pagecolor="#ffffff"
     bordercolor="#000000"
     borderopacity="0.25"
     inkscape:showpageshadow="2"
     inkscape:pageopacity="0.0"
     inkscape:pagecheckerboard="0"
     inkscape:deskcolor="#d1d1d1"
     inkscape:document-units="mm"
     showgrid="false" /><defs
     id="defs2"><rect
       x="232.81081"
       y="243.74089"
       width="168.3233"
       height="67.766525"
       id="rect349" /></defs><g
     inkscape:label="Layer 1"
     inkscape:groupmode="layer"
     id="layer1"
     transform="translate(-0.52865067,-0.27349782)"><path
       style="fill:#273a49;stroke:none;stroke-width:0.264583"
       d="M 57.678649,0.27349782 C 52.851335,4.5455878 46.337285,2.7704478 41.542775,6.5301478 34.488455,12.062058 37.834905,29.467618 37.834905,37.579748 h 0.26458 c 2.62493,-12.67847 12.95745,-6.67809 20.081344,-12.17166 3.92457,-3.02646 1.24989,-20.7554702 -0.50218,-25.13459018 M 38.364065,38.108908 h 0.26459 c 3.17447,-4.91119 7.75282,-6.81037 13.49375,-6.27724 3.912394,0.36301 8.695794,2.34448 12.091984,-0.77575 1.84997,-1.69969 0.82762,-5.0454 0.55933,-7.23451 -0.75777,-6.18196 -1.94257,-12.55834 -2.06798,-18.7854102 -7.20937,3.6558 1.61607,15.0305502 -1.88304,20.6232602 -2.88661,4.61402 -8.320084,2.81512 -12.669044,3.26597 -5.00036,0.51832 -8.46905,4.56115 -9.78959,9.18368 M 9.7890677,12.973498 5.5557347,38.638078 c 8.2176153,1.74784 14.6682893,-4.85219 22.2250013,-3.85154 4.016904,0.53181 6.352379,3.2348 9.260419,5.70362 0,-7.78563 3.99891,-29.04061 -6.350003,-30.8218602 -7.022571,-1.20873 -13.389293,4.5320702 -20.9020843,3.3052002 m 54.5041713,-1.32292 c 0.97975,5.03566 1.32741,10.25533 1.9677,15.34583 0.18627,1.48194 1.09326,4.28414 -0.0685,5.50334 -7.97693,8.37142 -21.500844,-6.62483 -28.092934,7.72583 4.72572,-4.08226 8.77993,-6.25581 15.08126,-4.1193 3.347234,1.1348 12.501814,5.52609 15.843244,2.62573 1.23613,-1.07315 -0.1696,-5.538 -0.39265,-6.9731 -1.04616,-6.73401 -2.50137,-13.57775 -3.01519,-20.37291 l -1.32293,0.26458 M 0.52865067,43.135998 c 9.67033633,0 20.02470033,-1.0668 29.62486833,0.046 2.817546,0.32649 3.819786,3.61315 7.152216,3.61288 3.32978,-2.6e-4 4.51564,-3.28189 7.41204,-3.61288 9.609404,-1.09855 19.951964,-0.046 29.629624,-0.046 l -6.08541,-28.575 h -1.32292 l 4.23333,26.45833 c -11.46625,0.22807 -25.498154,-10.73494 -33.866664,1.05834 -7.450666,-11.92398 -22.861931,-0.84455 -33.6020843,-1.05834 0.447834,-8.53943 2.379081,-17.84437 4.233334,-26.19375 -2.40501,-0.0315 -2.477532,4.78692 -2.860437,6.61458 -1.509369,7.20461 -3.429942,14.42085 -4.54789703,21.69584 m 37.57083433,-4.7625 0.26458,0.26458 z"
       id="path179" /><text
       xml:space="preserve"
       transform="matrix(0.35885288,0,0,0.34761535,-77.798427,-70.14663)"
       id="text347"
       style="font-weight:bold;font-size:18.6667px;font-family:'Trajan Pro';-inkscape-font-specification:'Trajan Pro Bold';text-align:center;white-space:pre;shape-inside:url(#rect349);fill:#f9f9f9"><tspan
         x="254.42056"
         y="260.0736"
         id="tspan546">TOP library
</tspan><tspan
         x="276.31657"
         y="283.40697"
         id="tspan548">project</tspan></text></g></svg>
